# xmcd
#
# Track frame offsets:
#	150
#	22562
#	42816
#	66979
#	85219
#	107476
#	135474
#
# Disc length: 2155 seconds
#
# Revision: 1
# Processed by: cddbd v1.5.2PL0 Copyright (c) Steve Scherf et al.
# Submitted via: audiograbber 1.83.01
#
DISCID=4a086907
DTITLE=Dire Straits - Live in Koln 79
DYEAR=1979
DGENRE=Rock
TTITLE0=Down to the Waterline
TTITLE1=Six blade Knife
TTITLE2=Once upon a time in the West
TTITLE3=Lady Writer
TTITLE4=Single anded Sailor
TTITLE5=Water of Love
TTITLE6=In the Gallery
EXTD=
EXTT0=
EXTT1=
EXTT2=
EXTT3=
EXTT4=
EXTT5=
EXTT6=
PLAYORDER=
